<mxfile host="app.diagrams.net" modified="2021-08-02T18:01:36.167Z" agent="5.0 (Macintosh; Intel Mac OS X 10_15_7) AppleWebKit/537.36 (KHTML, like Gecko) Chrome/92.0.4515.107 Safari/537.36" etag="VBsaGYrCaLqvcY7ibVYP" version="14.9.2" type="github">
  <diagram id="fmzYFa_QqMjDRlworgGW" name="Page-1">
    <mxGraphModel dx="2125" dy="810" grid="1" gridSize="10" guides="1" tooltips="1" connect="1" arrows="1" fold="1" page="1" pageScale="1" pageWidth="827" pageHeight="1169" math="0" shadow="0">
      <root>
        <mxCell id="0" />
        <mxCell id="1" parent="0" />
        <mxCell id="cEyNtSHhpOU2auwrBdww-3" value="" style="edgeStyle=orthogonalEdgeStyle;rounded=0;orthogonalLoop=1;jettySize=auto;html=1;" edge="1" parent="1" source="cEyNtSHhpOU2auwrBdww-1" target="cEyNtSHhpOU2auwrBdww-2">
          <mxGeometry relative="1" as="geometry" />
        </mxCell>
        <mxCell id="cEyNtSHhpOU2auwrBdww-1" value="User" style="shape=umlActor;verticalLabelPosition=bottom;verticalAlign=top;html=1;outlineConnect=0;" vertex="1" parent="1">
          <mxGeometry x="324.38" y="30" width="30" height="60" as="geometry" />
        </mxCell>
        <mxCell id="cEyNtSHhpOU2auwrBdww-10" value="" style="edgeStyle=orthogonalEdgeStyle;rounded=0;orthogonalLoop=1;jettySize=auto;html=1;" edge="1" parent="1" source="cEyNtSHhpOU2auwrBdww-2" target="cEyNtSHhpOU2auwrBdww-9">
          <mxGeometry relative="1" as="geometry" />
        </mxCell>
        <mxCell id="cEyNtSHhpOU2auwrBdww-2" value="进到任意一个页面" style="whiteSpace=wrap;html=1;verticalAlign=top;" vertex="1" parent="1">
          <mxGeometry x="240" y="160" width="198.75" height="40" as="geometry" />
        </mxCell>
        <mxCell id="cEyNtSHhpOU2auwrBdww-12" value="" style="edgeStyle=orthogonalEdgeStyle;rounded=0;orthogonalLoop=1;jettySize=auto;html=1;" edge="1" parent="1" source="cEyNtSHhpOU2auwrBdww-9" target="cEyNtSHhpOU2auwrBdww-11">
          <mxGeometry relative="1" as="geometry" />
        </mxCell>
        <mxCell id="cEyNtSHhpOU2auwrBdww-13" value="" style="edgeStyle=orthogonalEdgeStyle;rounded=0;orthogonalLoop=1;jettySize=auto;html=1;" edge="1" parent="1" source="cEyNtSHhpOU2auwrBdww-9" target="cEyNtSHhpOU2auwrBdww-11">
          <mxGeometry relative="1" as="geometry" />
        </mxCell>
        <mxCell id="cEyNtSHhpOU2auwrBdww-16" value="" style="edgeStyle=orthogonalEdgeStyle;rounded=0;orthogonalLoop=1;jettySize=auto;html=1;" edge="1" parent="1" source="cEyNtSHhpOU2auwrBdww-9" target="cEyNtSHhpOU2auwrBdww-15">
          <mxGeometry relative="1" as="geometry" />
        </mxCell>
        <mxCell id="cEyNtSHhpOU2auwrBdww-9" value="&lt;span&gt;&lt;br&gt;用户状态异常&lt;br&gt;isLogin=0 或 userStatus=0&lt;/span&gt;" style="rhombus;whiteSpace=wrap;html=1;verticalAlign=top;" vertex="1" parent="1">
          <mxGeometry x="240" y="260" width="200" height="60" as="geometry" />
        </mxCell>
        <mxCell id="cEyNtSHhpOU2auwrBdww-11" value="&lt;br&gt;跳到exception页" style="ellipse;whiteSpace=wrap;html=1;verticalAlign=top;align=center;" vertex="1" parent="1">
          <mxGeometry x="50" y="260" width="120" height="60" as="geometry" />
        </mxCell>
        <mxCell id="cEyNtSHhpOU2auwrBdww-14" value="Y" style="text;html=1;align=center;verticalAlign=middle;resizable=0;points=[];autosize=1;strokeColor=none;" vertex="1" parent="1">
          <mxGeometry x="200" y="260" width="20" height="20" as="geometry" />
        </mxCell>
        <mxCell id="cEyNtSHhpOU2auwrBdww-19" value="" style="edgeStyle=orthogonalEdgeStyle;rounded=0;orthogonalLoop=1;jettySize=auto;html=1;" edge="1" parent="1" source="cEyNtSHhpOU2auwrBdww-15" target="cEyNtSHhpOU2auwrBdww-18">
          <mxGeometry relative="1" as="geometry" />
        </mxCell>
        <mxCell id="cEyNtSHhpOU2auwrBdww-24" value="Y" style="edgeLabel;html=1;align=center;verticalAlign=middle;resizable=0;points=[];" vertex="1" connectable="0" parent="cEyNtSHhpOU2auwrBdww-19">
          <mxGeometry x="-0.1714" y="-3" relative="1" as="geometry">
            <mxPoint as="offset" />
          </mxGeometry>
        </mxCell>
        <mxCell id="cEyNtSHhpOU2auwrBdww-21" value="" style="edgeStyle=orthogonalEdgeStyle;rounded=0;orthogonalLoop=1;jettySize=auto;html=1;" edge="1" parent="1" source="cEyNtSHhpOU2auwrBdww-15" target="cEyNtSHhpOU2auwrBdww-20">
          <mxGeometry relative="1" as="geometry" />
        </mxCell>
        <mxCell id="cEyNtSHhpOU2auwrBdww-15" value="&lt;br&gt;用户被冻结" style="rhombus;whiteSpace=wrap;html=1;verticalAlign=top;" vertex="1" parent="1">
          <mxGeometry x="240" y="400" width="200" height="60" as="geometry" />
        </mxCell>
        <mxCell id="cEyNtSHhpOU2auwrBdww-17" value="N" style="text;html=1;align=center;verticalAlign=middle;resizable=0;points=[];autosize=1;strokeColor=none;" vertex="1" parent="1">
          <mxGeometry x="340" y="340" width="20" height="20" as="geometry" />
        </mxCell>
        <mxCell id="cEyNtSHhpOU2auwrBdww-18" value="&lt;br&gt;跳到首页" style="ellipse;whiteSpace=wrap;html=1;verticalAlign=top;" vertex="1" parent="1">
          <mxGeometry x="50" y="400" width="120" height="60" as="geometry" />
        </mxCell>
        <mxCell id="cEyNtSHhpOU2auwrBdww-23" value="" style="edgeStyle=orthogonalEdgeStyle;rounded=0;orthogonalLoop=1;jettySize=auto;html=1;" edge="1" parent="1" source="cEyNtSHhpOU2auwrBdww-20" target="cEyNtSHhpOU2auwrBdww-22">
          <mxGeometry relative="1" as="geometry" />
        </mxCell>
        <mxCell id="cEyNtSHhpOU2auwrBdww-28" value="" style="edgeStyle=orthogonalEdgeStyle;rounded=0;orthogonalLoop=1;jettySize=auto;html=1;" edge="1" parent="1" source="cEyNtSHhpOU2auwrBdww-20" target="cEyNtSHhpOU2auwrBdww-27">
          <mxGeometry relative="1" as="geometry" />
        </mxCell>
        <mxCell id="cEyNtSHhpOU2auwrBdww-20" value="&lt;br&gt;用户正常状态&lt;br&gt;(userStatus = 20)" style="rhombus;whiteSpace=wrap;html=1;verticalAlign=top;" vertex="1" parent="1">
          <mxGeometry x="240" y="540" width="200" height="60" as="geometry" />
        </mxCell>
        <mxCell id="cEyNtSHhpOU2auwrBdww-22" value="&lt;br&gt;跳到首页" style="ellipse;whiteSpace=wrap;html=1;verticalAlign=top;" vertex="1" parent="1">
          <mxGeometry x="50" y="540" width="120" height="60" as="geometry" />
        </mxCell>
        <mxCell id="cEyNtSHhpOU2auwrBdww-25" value="N" style="text;html=1;align=center;verticalAlign=middle;resizable=0;points=[];autosize=1;strokeColor=none;" vertex="1" parent="1">
          <mxGeometry x="340" y="480" width="20" height="20" as="geometry" />
        </mxCell>
        <mxCell id="cEyNtSHhpOU2auwrBdww-26" value="Y" style="text;html=1;align=center;verticalAlign=middle;resizable=0;points=[];autosize=1;strokeColor=none;" vertex="1" parent="1">
          <mxGeometry x="200" y="550" width="20" height="20" as="geometry" />
        </mxCell>
        <mxCell id="cEyNtSHhpOU2auwrBdww-30" value="" style="edgeStyle=orthogonalEdgeStyle;rounded=0;orthogonalLoop=1;jettySize=auto;html=1;entryX=0.5;entryY=0;entryDx=0;entryDy=0;" edge="1" parent="1" source="cEyNtSHhpOU2auwrBdww-27" target="cEyNtSHhpOU2auwrBdww-64">
          <mxGeometry relative="1" as="geometry">
            <mxPoint x="130" y="860" as="targetPoint" />
          </mxGeometry>
        </mxCell>
        <mxCell id="cEyNtSHhpOU2auwrBdww-32" value="" style="edgeStyle=orthogonalEdgeStyle;rounded=0;orthogonalLoop=1;jettySize=auto;html=1;entryX=0.5;entryY=0;entryDx=0;entryDy=0;" edge="1" parent="1" source="cEyNtSHhpOU2auwrBdww-27" target="cEyNtSHhpOU2auwrBdww-65">
          <mxGeometry relative="1" as="geometry">
            <mxPoint x="580" y="860" as="targetPoint" />
          </mxGeometry>
        </mxCell>
        <mxCell id="cEyNtSHhpOU2auwrBdww-27" value="&lt;br&gt;用户未激活" style="rhombus;whiteSpace=wrap;html=1;verticalAlign=top;" vertex="1" parent="1">
          <mxGeometry x="240" y="680" width="200" height="60" as="geometry" />
        </mxCell>
        <mxCell id="cEyNtSHhpOU2auwrBdww-37" value="" style="edgeStyle=orthogonalEdgeStyle;rounded=0;orthogonalLoop=1;jettySize=auto;html=1;exitX=0;exitY=0.5;exitDx=0;exitDy=0;" edge="1" parent="1" source="cEyNtSHhpOU2auwrBdww-64" target="cEyNtSHhpOU2auwrBdww-36">
          <mxGeometry relative="1" as="geometry">
            <mxPoint x="30" y="890" as="sourcePoint" />
          </mxGeometry>
        </mxCell>
        <mxCell id="cEyNtSHhpOU2auwrBdww-41" value="" style="edgeStyle=orthogonalEdgeStyle;rounded=0;orthogonalLoop=1;jettySize=auto;html=1;" edge="1" parent="1" source="cEyNtSHhpOU2auwrBdww-64" target="cEyNtSHhpOU2auwrBdww-40">
          <mxGeometry relative="1" as="geometry">
            <mxPoint x="90" y="950" as="sourcePoint" />
          </mxGeometry>
        </mxCell>
        <mxCell id="cEyNtSHhpOU2auwrBdww-61" value="" style="edgeStyle=orthogonalEdgeStyle;rounded=0;orthogonalLoop=1;jettySize=auto;html=1;exitX=1;exitY=0.5;exitDx=0;exitDy=0;" edge="1" parent="1" source="cEyNtSHhpOU2auwrBdww-64" target="cEyNtSHhpOU2auwrBdww-60">
          <mxGeometry relative="1" as="geometry">
            <mxPoint x="230" y="890" as="sourcePoint" />
          </mxGeometry>
        </mxCell>
        <mxCell id="cEyNtSHhpOU2auwrBdww-33" value="N" style="text;html=1;align=center;verticalAlign=middle;resizable=0;points=[];autosize=1;strokeColor=none;" vertex="1" parent="1">
          <mxGeometry x="340" y="620" width="20" height="20" as="geometry" />
        </mxCell>
        <mxCell id="cEyNtSHhpOU2auwrBdww-39" value="" style="edgeStyle=orthogonalEdgeStyle;rounded=0;orthogonalLoop=1;jettySize=auto;html=1;" edge="1" parent="1" source="cEyNtSHhpOU2auwrBdww-36" target="cEyNtSHhpOU2auwrBdww-38">
          <mxGeometry relative="1" as="geometry" />
        </mxCell>
        <mxCell id="cEyNtSHhpOU2auwrBdww-36" value="&lt;br&gt;用户处在&lt;br&gt;UnderReview状态(useStatus=12)&lt;br&gt;且当前页面不是结果页" style="rhombus;whiteSpace=wrap;html=1;verticalAlign=top;" vertex="1" parent="1">
          <mxGeometry x="-330" y="1010" width="250" height="90" as="geometry" />
        </mxCell>
        <mxCell id="cEyNtSHhpOU2auwrBdww-38" value="&lt;br&gt;跳到结果页" style="ellipse;whiteSpace=wrap;html=1;verticalAlign=top;" vertex="1" parent="1">
          <mxGeometry x="-265" y="1340" width="120" height="60" as="geometry" />
        </mxCell>
        <mxCell id="cEyNtSHhpOU2auwrBdww-52" value="" style="edgeStyle=orthogonalEdgeStyle;rounded=0;orthogonalLoop=1;jettySize=auto;html=1;" edge="1" parent="1" source="cEyNtSHhpOU2auwrBdww-40" target="cEyNtSHhpOU2auwrBdww-51">
          <mxGeometry relative="1" as="geometry" />
        </mxCell>
        <mxCell id="cEyNtSHhpOU2auwrBdww-40" value="&lt;br&gt;用户处在冷静期" style="rhombus;whiteSpace=wrap;html=1;verticalAlign=top;" vertex="1" parent="1">
          <mxGeometry x="15" y="1025" width="200" height="60" as="geometry" />
        </mxCell>
        <mxCell id="cEyNtSHhpOU2auwrBdww-54" value="" style="edgeStyle=orthogonalEdgeStyle;rounded=0;orthogonalLoop=1;jettySize=auto;html=1;" edge="1" parent="1" source="cEyNtSHhpOU2auwrBdww-51" target="cEyNtSHhpOU2auwrBdww-53">
          <mxGeometry relative="1" as="geometry">
            <Array as="points">
              <mxPoint x="-30" y="1218" />
            </Array>
          </mxGeometry>
        </mxCell>
        <mxCell id="cEyNtSHhpOU2auwrBdww-57" value="" style="edgeStyle=orthogonalEdgeStyle;rounded=0;orthogonalLoop=1;jettySize=auto;html=1;exitX=1;exitY=0.5;exitDx=0;exitDy=0;" edge="1" parent="1" source="cEyNtSHhpOU2auwrBdww-51" target="cEyNtSHhpOU2auwrBdww-56">
          <mxGeometry relative="1" as="geometry">
            <mxPoint x="220" y="1218" as="sourcePoint" />
            <Array as="points">
              <mxPoint x="260" y="1218" />
            </Array>
          </mxGeometry>
        </mxCell>
        <mxCell id="cEyNtSHhpOU2auwrBdww-51" value="&lt;br&gt;用户此时在首页或结果页" style="rhombus;whiteSpace=wrap;html=1;verticalAlign=top;" vertex="1" parent="1">
          <mxGeometry x="15" y="1187.5" width="200" height="60" as="geometry" />
        </mxCell>
        <mxCell id="cEyNtSHhpOU2auwrBdww-53" value="&lt;br&gt;跳到首页" style="ellipse;whiteSpace=wrap;html=1;verticalAlign=top;" vertex="1" parent="1">
          <mxGeometry x="-80" y="1340" width="120" height="60" as="geometry" />
        </mxCell>
        <mxCell id="cEyNtSHhpOU2auwrBdww-55" value="Y" style="text;html=1;align=center;verticalAlign=middle;resizable=0;points=[];autosize=1;strokeColor=none;" vertex="1" parent="1">
          <mxGeometry x="-10" y="1200" width="20" height="20" as="geometry" />
        </mxCell>
        <mxCell id="cEyNtSHhpOU2auwrBdww-56" value="&lt;br&gt;跳到结果页" style="ellipse;whiteSpace=wrap;html=1;verticalAlign=top;" vertex="1" parent="1">
          <mxGeometry x="200" y="1340" width="120" height="60" as="geometry" />
        </mxCell>
        <mxCell id="cEyNtSHhpOU2auwrBdww-63" value="" style="edgeStyle=orthogonalEdgeStyle;rounded=0;orthogonalLoop=1;jettySize=auto;html=1;" edge="1" parent="1" source="cEyNtSHhpOU2auwrBdww-60" target="cEyNtSHhpOU2auwrBdww-62">
          <mxGeometry relative="1" as="geometry" />
        </mxCell>
        <mxCell id="cEyNtSHhpOU2auwrBdww-60" value="其他剩下的情况" style="whiteSpace=wrap;html=1;verticalAlign=top;" vertex="1" parent="1">
          <mxGeometry x="354" y="1037.5" width="120" height="35" as="geometry" />
        </mxCell>
        <mxCell id="cEyNtSHhpOU2auwrBdww-62" value="&lt;br&gt;跳到首页" style="ellipse;whiteSpace=wrap;html=1;verticalAlign=top;" vertex="1" parent="1">
          <mxGeometry x="354.38" y="1340" width="120" height="60" as="geometry" />
        </mxCell>
        <mxCell id="cEyNtSHhpOU2auwrBdww-64" value="存量用户" style="rounded=0;whiteSpace=wrap;html=1;" vertex="1" parent="1">
          <mxGeometry x="40" y="870" width="150" height="40" as="geometry" />
        </mxCell>
        <mxCell id="cEyNtSHhpOU2auwrBdww-67" value="" style="edgeStyle=orthogonalEdgeStyle;rounded=0;orthogonalLoop=1;jettySize=auto;html=1;" edge="1" parent="1" source="cEyNtSHhpOU2auwrBdww-65" target="cEyNtSHhpOU2auwrBdww-66">
          <mxGeometry relative="1" as="geometry" />
        </mxCell>
        <mxCell id="cEyNtSHhpOU2auwrBdww-65" value="&lt;span&gt;非存量用户&lt;/span&gt;" style="rounded=0;whiteSpace=wrap;html=1;" vertex="1" parent="1">
          <mxGeometry x="660" y="870" width="120" height="40" as="geometry" />
        </mxCell>
        <mxCell id="cEyNtSHhpOU2auwrBdww-69" value="" style="edgeStyle=orthogonalEdgeStyle;rounded=0;orthogonalLoop=1;jettySize=auto;html=1;" edge="1" parent="1" source="cEyNtSHhpOU2auwrBdww-66" target="cEyNtSHhpOU2auwrBdww-68">
          <mxGeometry relative="1" as="geometry" />
        </mxCell>
        <mxCell id="cEyNtSHhpOU2auwrBdww-74" value="Y" style="edgeLabel;html=1;align=center;verticalAlign=middle;resizable=0;points=[];" vertex="1" connectable="0" parent="cEyNtSHhpOU2auwrBdww-69">
          <mxGeometry x="-0.16" relative="1" as="geometry">
            <mxPoint as="offset" />
          </mxGeometry>
        </mxCell>
        <mxCell id="cEyNtSHhpOU2auwrBdww-71" value="" style="edgeStyle=orthogonalEdgeStyle;rounded=0;orthogonalLoop=1;jettySize=auto;html=1;" edge="1" parent="1" source="cEyNtSHhpOU2auwrBdww-66" target="cEyNtSHhpOU2auwrBdww-70">
          <mxGeometry relative="1" as="geometry" />
        </mxCell>
        <mxCell id="cEyNtSHhpOU2auwrBdww-75" value="N" style="edgeLabel;html=1;align=center;verticalAlign=middle;resizable=0;points=[];" vertex="1" connectable="0" parent="cEyNtSHhpOU2auwrBdww-71">
          <mxGeometry x="-0.2" y="-1" relative="1" as="geometry">
            <mxPoint as="offset" />
          </mxGeometry>
        </mxCell>
        <mxCell id="cEyNtSHhpOU2auwrBdww-66" value="用户不在激活相关页面" style="rhombus;whiteSpace=wrap;html=1;rounded=0;" vertex="1" parent="1">
          <mxGeometry x="640" y="970" width="160" height="80" as="geometry" />
        </mxCell>
        <mxCell id="cEyNtSHhpOU2auwrBdww-68" value="跳到激活首页" style="ellipse;whiteSpace=wrap;html=1;rounded=0;" vertex="1" parent="1">
          <mxGeometry x="900" y="980" width="120" height="60" as="geometry" />
        </mxCell>
        <mxCell id="cEyNtSHhpOU2auwrBdww-73" value="" style="edgeStyle=orthogonalEdgeStyle;rounded=0;orthogonalLoop=1;jettySize=auto;html=1;" edge="1" parent="1" source="cEyNtSHhpOU2auwrBdww-70" target="cEyNtSHhpOU2auwrBdww-72">
          <mxGeometry relative="1" as="geometry" />
        </mxCell>
        <mxCell id="cEyNtSHhpOU2auwrBdww-76" value="Y" style="edgeLabel;html=1;align=center;verticalAlign=middle;resizable=0;points=[];" vertex="1" connectable="0" parent="cEyNtSHhpOU2auwrBdww-73">
          <mxGeometry x="-0.1429" y="4" relative="1" as="geometry">
            <mxPoint as="offset" />
          </mxGeometry>
        </mxCell>
        <mxCell id="cEyNtSHhpOU2auwrBdww-78" value="" style="edgeStyle=orthogonalEdgeStyle;rounded=0;orthogonalLoop=1;jettySize=auto;html=1;" edge="1" parent="1" source="cEyNtSHhpOU2auwrBdww-70" target="cEyNtSHhpOU2auwrBdww-77">
          <mxGeometry relative="1" as="geometry" />
        </mxCell>
        <mxCell id="cEyNtSHhpOU2auwrBdww-70" value="用户在冷静期内，&lt;br&gt;且当前不是激活结果页" style="rhombus;whiteSpace=wrap;html=1;rounded=0;" vertex="1" parent="1">
          <mxGeometry x="610" y="1130" width="220" height="80" as="geometry" />
        </mxCell>
        <mxCell id="cEyNtSHhpOU2auwrBdww-72" value="跳到结果页" style="ellipse;whiteSpace=wrap;html=1;rounded=0;" vertex="1" parent="1">
          <mxGeometry x="900" y="1140" width="120" height="60" as="geometry" />
        </mxCell>
        <mxCell id="cEyNtSHhpOU2auwrBdww-80" value="" style="edgeStyle=orthogonalEdgeStyle;rounded=0;orthogonalLoop=1;jettySize=auto;html=1;" edge="1" parent="1" source="cEyNtSHhpOU2auwrBdww-77" target="cEyNtSHhpOU2auwrBdww-79">
          <mxGeometry relative="1" as="geometry" />
        </mxCell>
        <mxCell id="cEyNtSHhpOU2auwrBdww-81" value="Y" style="edgeLabel;html=1;align=center;verticalAlign=middle;resizable=0;points=[];" vertex="1" connectable="0" parent="cEyNtSHhpOU2auwrBdww-80">
          <mxGeometry x="-0.0286" y="4" relative="1" as="geometry">
            <mxPoint as="offset" />
          </mxGeometry>
        </mxCell>
        <mxCell id="cEyNtSHhpOU2auwrBdww-83" value="" style="edgeStyle=orthogonalEdgeStyle;rounded=0;orthogonalLoop=1;jettySize=auto;html=1;" edge="1" parent="1" source="cEyNtSHhpOU2auwrBdww-77" target="cEyNtSHhpOU2auwrBdww-82">
          <mxGeometry relative="1" as="geometry" />
        </mxCell>
        <mxCell id="cEyNtSHhpOU2auwrBdww-84" value="N" style="edgeLabel;html=1;align=center;verticalAlign=middle;resizable=0;points=[];" vertex="1" connectable="0" parent="cEyNtSHhpOU2auwrBdww-83">
          <mxGeometry x="-0.3" y="-2" relative="1" as="geometry">
            <mxPoint as="offset" />
          </mxGeometry>
        </mxCell>
        <mxCell id="cEyNtSHhpOU2auwrBdww-77" value="用户处于under review状态(userStatus=12)&lt;br&gt;且当且不在激活首页或结果页" style="rhombus;whiteSpace=wrap;html=1;rounded=0;" vertex="1" parent="1">
          <mxGeometry x="585" y="1290" width="270" height="100" as="geometry" />
        </mxCell>
        <mxCell id="cEyNtSHhpOU2auwrBdww-79" value="&lt;span&gt;跳到结果页&lt;/span&gt;" style="ellipse;whiteSpace=wrap;html=1;rounded=0;" vertex="1" parent="1">
          <mxGeometry x="900" y="1310" width="120" height="60" as="geometry" />
        </mxCell>
        <mxCell id="cEyNtSHhpOU2auwrBdww-82" value="跳到首页" style="ellipse;whiteSpace=wrap;html=1;rounded=0;" vertex="1" parent="1">
          <mxGeometry x="660" y="1470" width="120" height="60" as="geometry" />
        </mxCell>
        <mxCell id="cEyNtSHhpOU2auwrBdww-85" value="N" style="text;html=1;align=center;verticalAlign=middle;resizable=0;points=[];autosize=1;strokeColor=none;" vertex="1" parent="1">
          <mxGeometry x="220" y="1200" width="20" height="20" as="geometry" />
        </mxCell>
        <mxCell id="cEyNtSHhpOU2auwrBdww-86" value="&lt;font style=&quot;font-size: 14px&quot;&gt;图里的的首页，&lt;br&gt;&lt;div&gt;&lt;span&gt;如果用户未激活，全部指 激活流程 的首页。&lt;/span&gt;&lt;/div&gt;如果用户已激活。全部指 贷后流程 的首页。&lt;/font&gt;" style="whiteSpace=wrap;html=1;align=center;" vertex="1" parent="1">
          <mxGeometry x="600" y="160" width="320" height="100" as="geometry" />
        </mxCell>
      </root>
    </mxGraphModel>
  </diagram>
</mxfile>
